<?xml version="1.0" encoding="UTF-8"?>
<svg width="110px" height="109px" viewBox="0 0 110 109" version="1.1" xmlns="http://www.w3.org/2000/svg" xmlns:xlink="http://www.w3.org/1999/xlink">
    <title>Artboard</title>
    <g id="Page-1" stroke="none" stroke-width="1" fill="none" fill-rule="evenodd">
        <g id="Launch" transform="translate(-133.000000, -291.000000)" fill-rule="nonzero">
            <g id="Group" transform="translate(120.000000, 286.000000)">
                <g transform="translate(8.000000, 0.000000)" id="Artboard">
                    <g id="Group" transform="translate(5.760000, 5.880000)" fill="#FFD500">
                        <path d="M54.18,0 C72.9116414,0 89.4230854,9.48474142 99.1535535,23.9035472 L92.4631326,28.1560075 C84.1426753,15.9375348 70.1007415,7.91121951 54.18,7.91121951 C28.6361568,7.91121951 7.92878049,28.5727323 7.92878049,54.06 C7.92878049,79.5472677 28.6361568,100.20878 54.18,100.20878 C69.9403757,100.20878 83.8596027,92.3433451 92.2099651,80.3319337 L98.7790298,84.7641646 C89.0027564,98.8749697 72.673421,108.12 54.18,108.12 C24.2572123,108.12 0,83.9165136 0,54.06 C0,24.2034864 24.2572123,0 54.18,0 Z M98.89847,65.8864884 L106.690869,67.4276924 C105.843699,70.7508674 104.688001,73.951123 103.255994,76.9963112 L96.2749476,73.2069287 C97.3465433,70.8652113 98.2276411,68.4184888 98.89847,65.8864884 Z M108.209911,50.0054629 C108.309379,51.3439995 108.36,52.6961013 108.36,54.06 C108.36,55.6761689 108.288922,57.2757733 108.149714,58.8558709 L100.262463,58.0300499 C100.374203,56.7215127 100.43122,55.3974001 100.43122,54.06 C100.43122,53.0112839 100.396161,51.970738 100.327149,50.9394656 L108.209911,50.0054629 Z M103.525573,31.7059554 C104.855152,34.6232914 105.93251,37.6792844 106.729859,40.8462061 L98.9767838,42.5331989 C98.3327573,40.0340972 97.4842137,37.6168813 96.4500134,35.3003699 L103.525573,31.7059554 Z" id="Path-3"></path>
                    </g>
                    <path d="M28.08,74.28 L28.08,72.1577293 L30.7756522,71.9242795 L31.5304348,71.2451528 L31.5304348,48.0699563 L30.9050435,47.4544978 L28.08,47.2422707 L28.08,45.12 L40.8034783,45.12 L40.8034783,47.2422707 L38.1078261,47.4544978 L37.3961739,48.0699563 L37.3961739,71.7544978 L45.8928696,71.7544978 L46.4535652,71.0541485 L47.122087,65.7696943 L50.4,65.7696943 L50.4,74.28 L28.08,74.28 Z M43.92,45.12 L56.0275269,45.12 L56.0275269,47.2422707 L53.4683871,47.4544978 L52.9952688,48.1124017 L60.3070968,67.9344105 L67.403871,48.1124017 L66.9092473,47.4544978 L64.264086,47.2422707 L64.264086,45.12 L73.92,45.12 L73.92,47.2422707 L71.0597849,47.8152838 L61.2748387,74.28 L56.8232258,74.28 L46.8232258,47.7728384 L43.92,47.2422707 L43.92,45.12 Z M74.04,73.4281857 L74.04,65.5072574 L77.3911727,65.5072574 L78.1046482,70.7594093 L78.6884009,71.4212658 C79.3370182,71.6205355 79.9820224,71.7699854 80.6234328,71.8696203 C81.2648433,71.9692551 81.9170543,72.0190717 82.5800853,72.0190717 C84.3097315,72.0190717 85.6934276,71.6418884 86.7312154,70.8875105 C87.7690031,70.1331327 88.2878891,69.1296828 88.2878891,67.8771308 C88.2878891,66.7669143 87.9239482,65.7812561 87.1960554,64.9201266 C86.4681627,64.0589971 85.2538251,63.2085555 83.5530064,62.3687764 C83.2791458,62.2264409 82.8611542,62.0271743 82.2990192,61.7709705 C80.2810987,60.84579 78.767681,59.9633235 77.7587207,59.1235443 C76.7641741,58.2979987 76.0002585,57.3657155 75.466951,56.3266667 C74.9336434,55.2876179 74.6669936,54.2272347 74.6669936,53.1454852 C74.6669936,50.6403813 75.6363016,48.5765482 77.5749467,46.9539241 C79.5135918,45.3312999 82.0251445,44.52 85.1096802,44.52 C86.450156,44.52 87.8122319,44.6445417 89.1959488,44.8936287 C90.5796658,45.1427157 91.992189,45.5163407 93.4335608,46.0145148 L93.4335608,53.1027848 L90.2337313,53.1027848 L89.4986354,48.5551899 L88.8716418,47.9360338 C88.453644,47.7225306 87.9779984,47.5659639 87.4446908,47.4663291 C86.9113833,47.3666943 86.3060162,47.3168776 85.6285714,47.3168776 C84.0574762,47.3168776 82.7962947,47.7011776 81.8449893,48.469789 C80.8936839,49.2384005 80.4180384,50.2418503 80.4180384,51.4801688 C80.4180384,52.3911157 80.6882915,53.2130906 81.228806,53.9461181 C81.7693204,54.6791457 82.6953879,55.429954 84.0070362,56.1985654 C84.324138,56.397835 85.206965,56.81416 86.6555437,57.4475527 C88.1041224,58.0809455 89.3256667,58.7107704 90.3202132,59.3370464 C91.6030341,60.1483585 92.590359,61.1233417 93.2822175,62.2620253 C93.974076,63.4007089 94.32,64.6176588 94.32,65.9129114 C94.32,68.5888179 93.2461941,70.7522843 91.0985501,72.4033755 C88.9509061,74.0544668 86.1114462,74.88 82.5800853,74.88 C81.1387135,74.88 79.6901565,74.7554583 78.234371,74.5063713 C76.7785855,74.2572843 75.3804758,73.8978926 74.04,73.4281857 Z" id="LVS" fill="#FFFFFF"></path>
                </g>
            </g>
        </g>
    </g>
</svg>