<svg id="Tab_1" data-name="Tab 1" xmlns="http://www.w3.org/2000/svg" width="125" height="51" viewBox="0 0 125 51">
  <rect id="Tab_Bounding_Box" data-name="Tab Bounding Box" width="125" height="49" fill="rgba(185,202,210,0)"/>
  <text id="Car_Spa" data-name="Car Spa" transform="translate(0 35)" fill="#fff" font-size="12" font-family="Helvetica" letter-spacing="-0.001em"><tspan x="40.525" y="9">Car Spa</tspan></text>
  <g id="Group" transform="translate(51 7.508)">
    <path id="Shape" d="M15.4,15.03A2.062,2.062,0,0,1,13.311,13v-.5H6.395V13A2.061,2.061,0,0,1,4.306,15.03H3.281A2.061,2.061,0,0,1,1.192,13V11.15a.672.672,0,0,1,.01-.1A4.548,4.548,0,0,1,1.135,5.2h-.3a.809.809,0,1,1,0-1.618H2.215C3.179,1.744,5.291,0,9.853,0s6.674,1.744,7.637,3.579h1.382a.809.809,0,1,1,0,1.618h-.3a4.549,4.549,0,0,1-.067,5.859c0,.031.01.061.01.094V13a2.062,2.062,0,0,1-2.09,2.028Z" transform="translate(0.206 6.662)" fill="#fff"/>
    <path id="Path" d="M1.223,2.374A1.207,1.207,0,0,0,2.446,1.187,1.207,1.207,0,0,0,1.223,0,1.207,1.207,0,0,0,0,1.187,1.206,1.206,0,0,0,1.223,2.374Z" transform="translate(3.556 13.851)" fill="#fff"/>
    <path id="Path-2" data-name="Path" d="M1.223,2.374A1.207,1.207,0,0,0,2.446,1.187,1.207,1.207,0,0,0,1.223,0,1.206,1.206,0,0,0,0,1.187,1.206,1.206,0,0,0,1.223,2.374Z" transform="translate(14.047 13.851)" fill="#fff"/>
    <path id="Path-3" data-name="Path" d="M1.667.809A.821.821,0,0,0,.833,0,.821.821,0,0,0,0,.809V1.865a.821.821,0,0,0,.833.809.821.821,0,0,0,.833-.809Z" transform="translate(19.68 3.076)" fill="#fff"/>
    <path id="Path-4" data-name="Path" d="M.833,0A.821.821,0,0,0,0,.809V1.865a.821.821,0,0,0,.833.809.821.821,0,0,0,.833-.809V.809A.821.821,0,0,0,.833,0Z" transform="translate(19.68 7.149)" fill="#fff"/>
    <path id="Path-5" data-name="Path" d="M1.921,0H.833A.821.821,0,0,0,0,.809a.821.821,0,0,0,.833.809H1.921A.822.822,0,0,0,2.754.809.822.822,0,0,0,1.921,0Z" transform="translate(17.039 5.641)" fill="#fff"/>
    <path id="Path-6" data-name="Path" d="M1.921,0H.833A.821.821,0,0,0,0,.809a.821.821,0,0,0,.833.809H1.921A.821.821,0,0,0,2.755.809.821.821,0,0,0,1.921,0Z" transform="translate(21.234 5.641)" fill="#fff"/>
    <path id="Path-7" data-name="Path" d="M.833,0A.821.821,0,0,0,0,.809v.874a.821.821,0,0,0,.833.809.821.821,0,0,0,.833-.809V.809A.822.822,0,0,0,.833,0Z" transform="translate(13.991 0.25)" fill="#fff"/>
    <path id="Path-8" data-name="Path" d="M.833,0A.821.821,0,0,0,0,.809v.873a.821.821,0,0,0,.833.809.821.821,0,0,0,.833-.809V.809A.821.821,0,0,0,.833,0Z" transform="translate(13.991 3.618)" fill="#fff"/>
    <path id="Path-9" data-name="Path" d="M.833,0A.821.821,0,0,0,0,.809a.822.822,0,0,0,.833.809h.9A.822.822,0,0,0,2.566.809.822.822,0,0,0,1.732,0Z" transform="translate(11.807 2.372)" fill="#fff"/>
    <path id="Path-10" data-name="Path" d="M1.733,0h-.9A.821.821,0,0,0,0,.809a.822.822,0,0,0,.833.809h.9A.822.822,0,0,0,2.566.809.821.821,0,0,0,1.733,0Z" transform="translate(15.276 2.372)" fill="#fff"/>
  </g>
</svg>
